Coordinates
version=1
nRows=16
nColumns=40
inDegrees=yes

Units are S.I. units (second, meters, Newtons, ...)
If the header above contains a line with 'inDegrees', this indicates whether rotational values are in degrees (yes) or radians (no).

endheader
time	pelvis_tilt	pelvis_list	pelvis_rotation	pelvis_tx	pelvis_ty	pelvis_tz	hip_flexion_r	hip_adduction_r	hip_rotation_r	knee_angle_r	knee_angle_r_beta	ankle_angle_r	subtalar_angle_r	mtp_angle_r	hip_flexion_l	hip_adduction_l	hip_rotation_l	knee_angle_l	knee_angle_l_beta	ankle_angle_l	subtalar_angle_l	mtp_angle_l	lumbar_extension	lumbar_bending	lumbar_rotation	arm_flex_r	arm_add_r	arm_rot_r	elbow_flex_r	pro_sup_r	wrist_flex_r	wrist_dev_r	arm_flex_l	arm_add_l	arm_rot_l	elbow_flex_l	pro_sup_l	wrist_flex_l	wrist_dev_l
     11.67500000	    -33.67446104	     -0.59100674	     10.93649191	     -0.30785449	      1.19654421	      0.03791448	     57.73482723	    -13.04443187	     -7.47721283	     41.79130794	      0.72939592	    -23.47362980	    -27.71701789	      0.00000000	    100.20625428	      4.53774690	      1.73474723	     90.72382122	      1.58342939	     10.67379964	    -14.67151542	      0.00000000	    -42.68655754	      9.48000039	     -8.51309373	     89.88282236	     -5.57047627	      9.42598470	     32.55288736	     86.76595710	      0.00000000	      0.00000000	     89.93152024	     -9.67833655	     24.47766560	     30.64020307	     78.70169353	      0.00000000	      0.00000000
     11.68333333	    -33.64763600	     -0.78888236	     10.60690718	     -0.30856201	      1.19637950	      0.03803717	     58.72799277	    -12.66096350	     -6.86947004	     44.51028962	      0.77685110	    -22.73685636	    -28.59532377	      0.00000000	     99.54163564	      4.38666158	      2.04528514	     88.62325949	      1.54676767	     10.40631804	    -14.86695152	      0.00000000	    -42.74117665	      9.54388164	     -8.09727465	     89.88755967	     -5.57440252	      9.25101039	     32.84935323	     86.80850823	      0.00000000	      0.00000000	     89.93142314	     -9.68097494	     24.26028186	     30.67491434	     78.67167330	      0.00000000	      0.00000000
     11.69166667	    -33.56986837	     -0.96073364	     10.21854692	     -0.30920429	      1.19623172	      0.03808590	     59.79960090	    -12.25382403	     -6.20143323	     47.40756164	      0.82741804	    -21.97830868	    -29.37400507	      0.00000000	     98.71778822	      4.22597514	      2.40235634	     86.37645781	      1.50755358	      9.33809751	    -14.57277568	      0.00000000	    -42.85666619	      9.57247486	     -7.63451236	     89.89094619	     -5.55048806	      9.07070627	     33.17259929	     86.86440603	      0.00000000	      0.00000000	     89.93146034	     -9.63027354	     24.00991428	     30.67933211	     78.64417388	      0.00000000	      0.00000000
     11.70000000	    -33.50010722	     -1.10989392	      9.76292308	     -0.30982240	      1.19595900	      0.03811699	     60.99465274	    -11.80321974	     -5.46544215	     50.42825888	      0.88013915	    -21.16680830	    -30.08326383	      0.00000000	     97.83991922	      4.02532249	      2.81443722	     84.13582877	      1.46844723	      8.48087633	    -14.83389332	      0.00000000	    -42.96153135	      9.54565103	     -7.10603810	     89.89500770	     -5.55861983	      8.88341287	     33.46833973	     86.93780239	      0.00000000	      0.00000000	     89.93106106	     -9.51366278	     23.65103838	     30.62123462	     78.62614945	      0.00000000	      0.00000000
     11.70833333	    -33.51610057	     -1.12149541	      9.29742392	     -0.31064100	      1.19567324	      0.03819219	     62.38288020	    -11.44779334	     -4.62288355	     53.50001398	      0.93375139	    -20.51036807	    -30.54569427	      0.00000000	     96.95284464	      3.76922196	      3.05885076	     81.77955560	      1.42732251	      7.22317290	    -15.16012656	      0.00000000	    -42.98891368	      9.39955440	     -6.72017147	     89.89907888	     -5.48508865	      8.67921247	     33.76629018	     87.04352647	      0.00000000	      0.00000000	     89.93092598	     -9.46271515	     23.25931826	     30.57036114	     78.67264583	      0.00000000	      0.00000000
     11.71666667	    -33.44927616	     -0.85981855	      8.76608149	     -0.31125275	      1.19537464	      0.03800334	     63.81770640	    -11.24622863	     -3.59646096	     56.70200839	      0.98963674	    -19.75238758	    -30.55294184	      0.00000000	     95.85904648	      3.43936765	      3.04336046	     79.41339156	      1.38602515	      5.80446083	    -15.11252884	      0.00000000	    -43.11056729	      9.03219708	     -6.45258807	     89.90160713	     -5.42193377	      8.53022523	     34.09784600	     87.16778873	      0.00000000	      0.00000000	     89.93076710	     -9.43806659	     22.84906711	     30.50259500	     78.88953849	      0.00000000	      0.00000000
     11.72500000	    -33.10213338	     -1.21683650	      8.40754074	     -0.31144295	      1.19504258	      0.03821506	     64.91846641	    -10.78011580	     -3.30293171	     59.89563005	      1.04537595	    -19.07041102	    -30.89318550	      0.00000000	     94.58543615	      3.07220559	      3.54093581	     77.15111086	      1.34654091	      4.62000516	    -15.13892059	      0.00000000	    -43.44793286	      9.27207631	     -5.83392944	     89.90427009	     -5.38398599	      8.44839997	     34.39547831	     87.19542384	      0.00000000	      0.00000000	     89.93061086	     -9.38063671	     22.54868121	     30.38724827	     78.88544125	      0.00000000	      0.00000000
     11.73333333	    -32.71587589	     -1.59942679	      7.95617068	     -0.31154695	      1.19479494	      0.03842589	     66.00547659	    -10.19813366	     -2.91315770	     62.99100603	      1.09940045	    -18.87011830	    -30.95494329	      0.00000000	     93.24666147	      2.77003621	      4.32011628	     74.96583087	      1.30840058	      3.51942426	    -14.97988050	      0.00000000	    -43.84872392	      9.49371932	     -5.12035096	     89.90762575	     -5.35890977	      8.40905523	     34.73690781	     87.22382446	      0.00000000	      0.00000000	     89.93035492	     -9.34159657	     22.34043354	     30.34960713	     78.87290191	      0.00000000	      0.00000000
     11.74166667	    -32.70813180	     -1.15826943	      7.50387411	     -0.31225074	      1.19441856	      0.03797824	     67.66913002	    -10.24193502	     -1.91152148	     66.14397511	      1.15443015	    -18.07542138	    -30.32861444	      0.00000000	     91.94656265	      2.51168801	      4.11443144	     72.42434629	      1.26404330	      1.63696367	    -15.62870064	      0.00000000	    -43.88456450	      9.04758752	     -5.06069375	     89.90966266	     -5.27527297	      8.33842134	     35.00821296	     87.33821156	      0.00000000	      0.00000000	     89.92978863	     -9.20874794	     21.53297747	     30.12520688	     79.03191021	      0.00000000	      0.00000000
     11.75000000	    -32.31990746	     -1.46848449	      7.02920824	     -0.31224920	      1.19425215	      0.03817421	     68.76753478	     -9.75115756	     -1.65211713	     69.07398422	      1.20556845	    -17.71848303	    -30.29583266	      0.00000000	     90.42411322	      2.10443189	      4.79030831	     70.13812805	      1.22414127	      0.21320588	    -15.36185984	      0.00000000	    -44.29414910	      9.20163280	     -4.41920757	     89.91218236	     -5.21819307	      8.32626340	     35.32101511	     87.36094794	      0.00000000	      0.00000000	     89.92983626	     -9.20127751	     21.33119325	     29.98335184	     79.07237388	      0.00000000	      0.00000000
     11.75833333	    -32.02569852	     -1.81180369	      6.59364840	     -0.31240299	      1.19401917	      0.03831415	     70.01412932	     -9.26204613	     -1.36539032	     71.97962290	      1.25628141	    -17.54423628	    -30.20284732	      0.00000000	     88.89845573	      1.80238334	      5.65904367	     67.76810984	      1.18277664	     -0.98738440	    -15.05776303	      0.00000000	    -44.60472731	      9.39779495	     -3.76191722	     89.91587307	     -5.19019351	      8.30713126	     35.59065934	     87.38114188	      0.00000000	      0.00000000	     89.92907830	     -9.15682150	     21.11857638	     29.86552362	     79.06498655	      0.00000000	      0.00000000
     11.76666667	    -31.64337203	     -2.06047738	      6.08452185	     -0.31220953	      1.19378262	      0.03841681	     71.16483737	     -8.82515317	     -1.11623807	     74.75964545	      1.30480196	    -17.31599182	    -30.04213186	      0.00000000	     87.27665806	      1.31117651	      6.27316363	     65.47873668	      1.14281955	     -2.48831824	    -14.70090314	      0.00000000	    -45.00428715	      9.48566185	     -3.10801762	     89.91878794	     -5.15959208	      8.28915215	     35.86305478	     87.40568287	      0.00000000	      0.00000000	     89.92867573	     -9.08483753	     20.84397478	     29.64328119	     79.04014551	      0.00000000	      0.00000000
     11.77500000	    -31.61848741	     -1.34719528	      5.80749979	     -0.31271043	      1.19369759	      0.03758994	     72.88791339	     -9.21421134	      0.00828670	     77.59306867	      1.35425453	    -16.45254067	    -28.34261000	      0.00000000	     85.51362849	      1.44633815	      6.11793936	     62.64907902	      1.09343270	     -4.48857597	    -15.76704830	      0.00000000	    -45.05258385	      8.96858677	     -3.42151707	     89.92000300	     -5.02209674	      8.10485596	     36.12447980	     87.44231453	      0.00000000	      0.00000000	     89.92753204	     -9.02408059	     19.97431321	     29.50390428	     79.44453410	      0.00000000	      0.00000000
     11.78333333	    -31.27394948	     -1.68690719	      5.28426837	     -0.31240716	      1.19344183	      0.03781649	     74.05490897	     -8.70360474	      0.14233414	     80.13972022	      1.39870198	    -16.37103483	    -28.30859386	      0.00000000	     83.83432239	      0.94404436	      6.96023905	     60.44597506	      1.05498128	     -5.57876931	    -15.34184158	      0.00000000	    -45.41033011	      9.11049363	     -2.69883357	     89.92270511	     -4.99799746	      8.11711118	     36.25261791	     87.45517353	      0.00000000	      0.00000000	     89.92637550	     -8.96453154	     19.87564441	     29.25730786	     79.43569620	      0.00000000	      0.00000000
     11.79166667	    -30.87023553	     -1.95539595	      4.69905143	     -0.31187789	      1.19344568	      0.03806167	     75.13555627	     -8.16666298	      0.33173557	     82.55367199	      1.44083339	    -16.09558197	    -28.12793000	      0.00000000	     82.01907817	      0.28070195	      7.49187599	     58.24147609	      1.01650552	     -6.98870074	    -14.93703148	      0.00000000	    -45.86773600	      9.16478929	     -1.98158979	     89.92476013	     -4.97035678	      8.12698306	     36.55661982	     87.48923874	      0.00000000	      0.00000000	     89.92612634	     -8.87520722	     19.57904463	     28.96660269	     79.39131338	      0.00000000	      0.00000000
     11.80000000	    -30.49740971	     -2.26628114	      4.14266957	     -0.31126806	      1.19324293	      0.03832499	     76.25135510	     -7.66219827	      0.44052237	     84.91294921	      1.48201054	    -15.81782400	    -27.97247569	      0.00000000	     80.23498138	     -0.40324901	      7.98647538	     56.15001061	      0.98000256	     -8.03394356	    -14.63834379	      0.00000000	    -46.26783292	      9.24917749	     -1.25290695	     89.92700170	     -4.93981608	      8.14890462	     36.69804868	     87.51738166	      0.00000000	      0.00000000	     89.92407016	     -8.77130859	     19.37791860	     28.65987213	     79.35920145	      0.00000000	      0.00000000
